<mxfile host="app.diagrams.net" modified="2023-08-25T16:18:54.625Z" agent="Mozilla/5.0 (X11; Linux x86_64; rv:103.0) Gecko/20100101 Firefox/103.0" etag="WGvGm3ft1DBrfgoxYxEm" version="21.6.9" type="github">
  <diagram id="R2lEEEUBdFMjLlhIrx00" name="Page-1">
    <mxGraphModel dx="2284" dy="644" grid="1" gridSize="10" guides="1" tooltips="1" connect="1" arrows="1" fold="1" page="1" pageScale="1" pageWidth="850" pageHeight="1100" math="0" shadow="0" extFonts="Permanent Marker^https://fonts.googleapis.com/css?family=Permanent+Marker">
      <root>
        <mxCell id="0" />
        <mxCell id="1" parent="0" />
        <mxCell id="C0YOq0TceAwWxVwA72IL-6" value="" style="edgeStyle=orthogonalEdgeStyle;rounded=0;orthogonalLoop=1;jettySize=auto;html=1;" edge="1" parent="1" source="C0YOq0TceAwWxVwA72IL-1">
          <mxGeometry relative="1" as="geometry">
            <mxPoint x="100" y="100" as="targetPoint" />
          </mxGeometry>
        </mxCell>
        <mxCell id="C0YOq0TceAwWxVwA72IL-1" value="BERÇARIO" style="rounded=0;whiteSpace=wrap;html=1;" vertex="1" parent="1">
          <mxGeometry x="-100" y="50" width="120" height="60" as="geometry" />
        </mxCell>
        <mxCell id="C0YOq0TceAwWxVwA72IL-18" value="" style="edgeStyle=orthogonalEdgeStyle;rounded=0;orthogonalLoop=1;jettySize=auto;html=1;" edge="1" parent="1" source="C0YOq0TceAwWxVwA72IL-8" target="C0YOq0TceAwWxVwA72IL-17">
          <mxGeometry relative="1" as="geometry" />
        </mxCell>
        <mxCell id="C0YOq0TceAwWxVwA72IL-8" value="BB" style="swimlane;fontStyle=0;childLayout=stackLayout;horizontal=1;startSize=30;horizontalStack=0;resizeParent=1;resizeParentMax=0;resizeLast=0;collapsible=1;marginBottom=0;whiteSpace=wrap;html=1;" vertex="1" parent="1">
          <mxGeometry x="100" y="50" width="140" height="180" as="geometry" />
        </mxCell>
        <mxCell id="C0YOq0TceAwWxVwA72IL-10" value="NOME" style="text;strokeColor=none;fillColor=none;align=left;verticalAlign=middle;spacingLeft=4;spacingRight=4;overflow=hidden;points=[[0,0.5],[1,0.5]];portConstraint=eastwest;rotatable=0;whiteSpace=wrap;html=1;" vertex="1" parent="C0YOq0TceAwWxVwA72IL-8">
          <mxGeometry y="30" width="140" height="30" as="geometry" />
        </mxCell>
        <mxCell id="C0YOq0TceAwWxVwA72IL-14" value="DATA DE NASCIMENTO" style="text;strokeColor=none;fillColor=none;align=left;verticalAlign=middle;spacingLeft=4;spacingRight=4;overflow=hidden;points=[[0,0.5],[1,0.5]];portConstraint=eastwest;rotatable=0;whiteSpace=wrap;html=1;" vertex="1" parent="C0YOq0TceAwWxVwA72IL-8">
          <mxGeometry y="60" width="140" height="30" as="geometry" />
        </mxCell>
        <mxCell id="C0YOq0TceAwWxVwA72IL-11" value="MÃE" style="text;strokeColor=none;fillColor=none;align=left;verticalAlign=middle;spacingLeft=4;spacingRight=4;overflow=hidden;points=[[0,0.5],[1,0.5]];portConstraint=eastwest;rotatable=0;whiteSpace=wrap;html=1;" vertex="1" parent="C0YOq0TceAwWxVwA72IL-8">
          <mxGeometry y="90" width="140" height="30" as="geometry" />
        </mxCell>
        <mxCell id="C0YOq0TceAwWxVwA72IL-13" value="PESO" style="text;strokeColor=none;fillColor=none;align=left;verticalAlign=middle;spacingLeft=4;spacingRight=4;overflow=hidden;points=[[0,0.5],[1,0.5]];portConstraint=eastwest;rotatable=0;whiteSpace=wrap;html=1;" vertex="1" parent="C0YOq0TceAwWxVwA72IL-8">
          <mxGeometry y="120" width="140" height="30" as="geometry" />
        </mxCell>
        <mxCell id="C0YOq0TceAwWxVwA72IL-15" value="MÉDICO" style="text;strokeColor=none;fillColor=none;align=left;verticalAlign=middle;spacingLeft=4;spacingRight=4;overflow=hidden;points=[[0,0.5],[1,0.5]];portConstraint=eastwest;rotatable=0;whiteSpace=wrap;html=1;" vertex="1" parent="C0YOq0TceAwWxVwA72IL-8">
          <mxGeometry y="150" width="140" height="30" as="geometry" />
        </mxCell>
        <mxCell id="C0YOq0TceAwWxVwA72IL-27" value="" style="edgeStyle=orthogonalEdgeStyle;rounded=0;orthogonalLoop=1;jettySize=auto;html=1;" edge="1" parent="1" source="C0YOq0TceAwWxVwA72IL-17" target="C0YOq0TceAwWxVwA72IL-25">
          <mxGeometry relative="1" as="geometry" />
        </mxCell>
        <mxCell id="C0YOq0TceAwWxVwA72IL-17" value="TEM" style="rhombus;whiteSpace=wrap;html=1;fontStyle=0;startSize=30;" vertex="1" parent="1">
          <mxGeometry x="350" y="100" width="80" height="80" as="geometry" />
        </mxCell>
        <mxCell id="C0YOq0TceAwWxVwA72IL-31" value="" style="edgeStyle=orthogonalEdgeStyle;rounded=0;orthogonalLoop=1;jettySize=auto;html=1;" edge="1" parent="1" source="C0YOq0TceAwWxVwA72IL-23" target="C0YOq0TceAwWxVwA72IL-30">
          <mxGeometry relative="1" as="geometry" />
        </mxCell>
        <mxCell id="C0YOq0TceAwWxVwA72IL-23" value="MÃE" style="swimlane;fontStyle=0;childLayout=stackLayout;horizontal=1;startSize=30;horizontalStack=0;resizeParent=1;resizeParentMax=0;resizeLast=0;collapsible=1;marginBottom=0;whiteSpace=wrap;html=1;" vertex="1" parent="1">
          <mxGeometry x="330" y="270" width="140" height="150" as="geometry" />
        </mxCell>
        <mxCell id="C0YOq0TceAwWxVwA72IL-24" value="DATA DE NASCIMENTO" style="text;strokeColor=none;fillColor=none;align=left;verticalAlign=middle;spacingLeft=4;spacingRight=4;overflow=hidden;points=[[0,0.5],[1,0.5]];portConstraint=eastwest;rotatable=0;whiteSpace=wrap;html=1;" vertex="1" parent="C0YOq0TceAwWxVwA72IL-23">
          <mxGeometry y="30" width="140" height="30" as="geometry" />
        </mxCell>
        <mxCell id="C0YOq0TceAwWxVwA72IL-25" value="NOME" style="text;strokeColor=none;fillColor=none;align=left;verticalAlign=middle;spacingLeft=4;spacingRight=4;overflow=hidden;points=[[0,0.5],[1,0.5]];portConstraint=eastwest;rotatable=0;whiteSpace=wrap;html=1;" vertex="1" parent="C0YOq0TceAwWxVwA72IL-23">
          <mxGeometry y="60" width="140" height="30" as="geometry" />
        </mxCell>
        <mxCell id="C0YOq0TceAwWxVwA72IL-26" value="ENDEREÇO" style="text;strokeColor=none;fillColor=none;align=left;verticalAlign=middle;spacingLeft=4;spacingRight=4;overflow=hidden;points=[[0,0.5],[1,0.5]];portConstraint=eastwest;rotatable=0;whiteSpace=wrap;html=1;" vertex="1" parent="C0YOq0TceAwWxVwA72IL-23">
          <mxGeometry y="90" width="140" height="30" as="geometry" />
        </mxCell>
        <mxCell id="C0YOq0TceAwWxVwA72IL-28" value="TELEFONE" style="text;strokeColor=none;fillColor=none;align=left;verticalAlign=middle;spacingLeft=4;spacingRight=4;overflow=hidden;points=[[0,0.5],[1,0.5]];portConstraint=eastwest;rotatable=0;whiteSpace=wrap;html=1;" vertex="1" parent="C0YOq0TceAwWxVwA72IL-23">
          <mxGeometry y="120" width="140" height="30" as="geometry" />
        </mxCell>
        <mxCell id="C0YOq0TceAwWxVwA72IL-33" value="" style="edgeStyle=orthogonalEdgeStyle;rounded=0;orthogonalLoop=1;jettySize=auto;html=1;" edge="1" parent="1" source="C0YOq0TceAwWxVwA72IL-30" target="C0YOq0TceAwWxVwA72IL-34">
          <mxGeometry relative="1" as="geometry">
            <mxPoint x="780" y="345" as="targetPoint" />
          </mxGeometry>
        </mxCell>
        <mxCell id="C0YOq0TceAwWxVwA72IL-30" value="TEM" style="rhombus;whiteSpace=wrap;html=1;fontStyle=0;startSize=30;" vertex="1" parent="1">
          <mxGeometry x="580" y="305" width="80" height="80" as="geometry" />
        </mxCell>
        <mxCell id="C0YOq0TceAwWxVwA72IL-34" value="MÉDICO" style="swimlane;fontStyle=0;childLayout=stackLayout;horizontal=1;startSize=30;horizontalStack=0;resizeParent=1;resizeParentMax=0;resizeLast=0;collapsible=1;marginBottom=0;whiteSpace=wrap;html=1;" vertex="1" parent="1">
          <mxGeometry x="710" y="285" width="140" height="120" as="geometry" />
        </mxCell>
        <mxCell id="C0YOq0TceAwWxVwA72IL-35" value="NOME" style="text;strokeColor=none;fillColor=none;align=left;verticalAlign=middle;spacingLeft=4;spacingRight=4;overflow=hidden;points=[[0,0.5],[1,0.5]];portConstraint=eastwest;rotatable=0;whiteSpace=wrap;html=1;" vertex="1" parent="C0YOq0TceAwWxVwA72IL-34">
          <mxGeometry y="30" width="140" height="30" as="geometry" />
        </mxCell>
        <mxCell id="C0YOq0TceAwWxVwA72IL-36" value="CRM" style="text;strokeColor=none;fillColor=none;align=left;verticalAlign=middle;spacingLeft=4;spacingRight=4;overflow=hidden;points=[[0,0.5],[1,0.5]];portConstraint=eastwest;rotatable=0;whiteSpace=wrap;html=1;" vertex="1" parent="C0YOq0TceAwWxVwA72IL-34">
          <mxGeometry y="60" width="140" height="30" as="geometry" />
        </mxCell>
        <mxCell id="C0YOq0TceAwWxVwA72IL-37" value="ESPECIALIDADE" style="text;strokeColor=none;fillColor=none;align=left;verticalAlign=middle;spacingLeft=4;spacingRight=4;overflow=hidden;points=[[0,0.5],[1,0.5]];portConstraint=eastwest;rotatable=0;whiteSpace=wrap;html=1;" vertex="1" parent="C0YOq0TceAwWxVwA72IL-34">
          <mxGeometry y="90" width="140" height="30" as="geometry" />
        </mxCell>
      </root>
    </mxGraphModel>
  </diagram>
</mxfile>
